<svg xmlns="http://www.w3.org/2000/svg" viewBox="0 0 800 540" font-family="Arial,sans-serif" font-size="13">
<defs><marker id="a" viewBox="0 0 10 10" refX="10" refY="5" markerWidth="8" markerHeight="8" orient="auto"><path d="M0,0 L10,5 L0,10Z" fill="#666"/></marker></defs><rect x="325" y="10" width="110" height="24"  style="fill:#d4edda;stroke:#5cb85c;stroke-width:1.5;rx:5"/><text x="380" y="26"  style="fill:#333;text-anchor:middle;font-size:12px">.ithmb file</text><path d="M380,34 L380,62"  style="stroke:#666;stroke-width:1.5;fill:none;marker-end:url(#a)"/><rect x="30" y="62" width="200" height="115"  style="fill:#e8f4f8;stroke:#4a90d9;stroke-width:1.5;rx:5"/><text x="130" y="80"  style="fill:#2c6fa0;font-weight:bold;font-size:14px;text-anchor:middle">Plugin ABI Layer</text><rect x="40" y="89" width="180" height="22"  style="fill:#d4e8f0;stroke:#4a90d9;stroke-width:1;rx:3"/><text x="130" y="104"  style="fill:#333;text-anchor:middle;font-size:12px">ig_plugin_get_api()</text><rect x="40" y="114" width="180" height="22"  style="fill:#d4e8f0;stroke:#4a90d9;stroke-width:1;rx:3"/><text x="130" y="129"  style="fill:#333;text-anchor:middle;font-size:12px">DecodeStaticRaster()</text><rect x="40" y="139" width="180" height="22"  style="fill:#d4e8f0;stroke:#4a90d9;stroke-width:1;rx:3"/><text x="130" y="154"  style="fill:#333;text-anchor:middle;font-size:12px">FreePixelBuffer()</text><rect x="255" y="62" width="245" height="115"  style="fill:#e8f4f8;stroke:#4a90d9;stroke-width:1.5;rx:5"/><text x="380" y="80"  style="fill:#2c6fa0;font-weight:bold;font-size:14px;text-anchor:middle">Decode Pipeline</text><rect x="265" y="89" width="225" height="22"  style="fill:#d4e8f0;stroke:#4a90d9;stroke-width:1;rx:3"/><text x="380" y="104"  style="fill:#333;text-anchor:middle;font-size:12px">Size Guard (&lt;50 MB)</text><rect x="265" y="114" width="225" height="22"  style="fill:#d4e8f0;stroke:#4a90d9;stroke-width:1;rx:3"/><text x="380" y="129"  style="fill:#333;text-anchor:middle;font-size:12px">Peek 4MB + JPEG Scan (SIMD)</text><rect x="525" y="62" width="200" height="115"  style="fill:#e8f4f8;stroke:#4a90d9;stroke-width:1.5;rx:5"/><text x="625" y="80"  style="fill:#2c6fa0;font-weight:bold;font-size:14px;text-anchor:middle">48 Profiles</text><text x="625" y="104"  style="fill:#333;text-anchor:middle;font-size:12px">22 Photo (1005-3011)</text><text x="625" y="121"  style="fill:#333;text-anchor:middle;font-size:12px">26 Cover Art (1010-3005)</text><text x="625" y="138"  style="fill:#333;text-anchor:middle;font-size:12px">profiles.json override</text><text x="625" y="158"  style="fill:#666;text-anchor:middle;font-size:11px">Runtime extensible (no recompile)</text><path d="M230,119 L255,119"  style="stroke:#666;stroke-width:1.5;fill:none;marker-end:url(#a)"/><path d="M525,119 L500,119"  style="stroke:#666;stroke-width:1.5;fill:none;marker-end:url(#a)"/><path d="M380,177 L380,207"  style="stroke:#666;stroke-width:1.5;fill:none;marker-end:url(#a)"/><rect x="310" y="207" width="140" height="24"  style="fill:#f0f0f0;stroke:#999;stroke-width:1;rx:3"/><text x="380" y="223"  style="fill:#333;text-anchor:middle;font-size:12px">JFIF/Exif within 512B?</text><path d="M310,219 L130,219 L130,255"  style="stroke:#666;stroke-width:1.5;fill:none;marker-end:url(#a)"/><text x="200" y="215"  style="fill:#5cb85c;font-size:11px">Yes</text><path d="M450,219 L625,219 L625,255"  style="stroke:#666;stroke-width:1.5;fill:none;marker-end:url(#a)"/><text x="545" y="215"  style="fill:#d9534f;font-size:11px">No</text><rect x="30" y="255" width="200" height="70"  style="fill:#d4edda;stroke:#5cb85c;stroke-width:1.5;rx:5"/><text x="130" y="273"  style="fill:#2c6fa0;font-weight:bold;font-size:14px;text-anchor:middle">JPEG Path</text><text x="130" y="293"  style="fill:#333;text-anchor:middle;font-size:12px">StbImageSharp Decode</text><text x="130" y="310"  style="fill:#333;text-anchor:middle;font-size:12px">RGBA → BGRA Swap</text><rect x="525" y="255" width="200" height="70"  style="fill:#fff3cd;stroke:#f0ad4e;stroke-width:1.5;rx:5"/><text x="625" y="273"  style="fill:#2c6fa0;font-weight:bold;font-size:14px;text-anchor:middle">Raw Path</text><text x="625" y="293"  style="fill:#333;text-anchor:middle;font-size:12px">Read 4-Byte BE Prefix</text><text x="625" y="310"  style="fill:#333;text-anchor:middle;font-size:12px">Lookup KnownProfiles[48]</text><path d="M130,325 L130,387"  style="stroke:#666;stroke-width:1.5;fill:none;marker-end:url(#a)"/><rect x="50" y="387" width="160" height="28"  style="fill:#d4e8f0;stroke:#4a90d9;stroke-width:1;rx:3"/><text x="130" y="405"  style="fill:#333;text-anchor:middle;font-size:12px">EXIF Orientation Parse</text><path d="M625,325 L625,351"  style="stroke:#666;stroke-width:1.5;fill:none;marker-end:url(#a)"/><rect x="525" y="351" width="200" height="100"  style="fill:#e8f4f8;stroke:#4a90d9;stroke-width:1.5;rx:5"/><text x="625" y="369"  style="fill:#2c6fa0;font-weight:bold;font-size:14px;text-anchor:middle">Raw Decoders</text><text x="625" y="391"  style="fill:#333;text-anchor:middle;font-size:12px">RGB565/RGB555 (SSE2)</text><text x="625" y="408"  style="fill:#333;text-anchor:middle;font-size:12px">UYVY (SSSE3+SSE2)</text><text x="625" y="425"  style="fill:#333;text-anchor:middle;font-size:12px">YCbCr 4:2:0 (Vector128)</text><text x="625" y="442"  style="fill:#333;text-anchor:middle;font-size:12px">CLCL Nibble-Chroma</text><path d="M130,415 L130,479 L268,479"  style="stroke:#666;stroke-width:1.5;fill:none;marker-end:url(#a)"/><path d="M625,451 L625,479 L488,479"  style="stroke:#666;stroke-width:1.5;fill:none;marker-end:url(#a)"/><rect x="268" y="465" width="220" height="28"  style="fill:#d4edda;stroke:#5cb85c;stroke-width:1.5;rx:5"/><text x="378" y="483"  style="fill:#333;text-anchor:middle;font-size:12px">BGRA Buffer + IGImageInfo</text></svg>